<?xml version="1.0" encoding="utf-8"?>
<!-- Generator: Adobe Illustrator 25.3.1, SVG Export Plug-In . SVG Version: 6.00 Build 0)  -->
<svg version="1.1" id="Layer_1" xmlns="http://www.w3.org/2000/svg" xmlns:xlink="http://www.w3.org/1999/xlink" x="0px" y="0px"
	 viewBox="0 0 204.7 100" style="enable-background:new 0 0 204.7 100;" xml:space="preserve">
<style type="text/css">
	.st0{fill:#1B2729;}
</style>
<g>
	<path class="st0" d="M22.3,65.4c0-1,0.2-2.1,0.8-3.9l12.2-34.9c1.5-4.5,3.7-6.4,7.7-6.4c4,0,6.1,1.8,7.6,6.4l12.2,34.9
		c0.5,1.5,0.7,2.7,0.7,3.7c0,2.5-1.8,4.2-4.5,4.2c-2.6,0-4.1-1.3-5-4.6l-2.7-8.2h-17l-2.7,8.2c-1,3.3-2.4,4.6-5,4.6
		C24.1,69.4,22.3,67.8,22.3,65.4z M49.2,49.4l-6.1-19.5h-0.5l-6.2,19.5H49.2z"/>
	<path class="st0" d="M82.6,68.3c-8.3,0-14.2-6.1-14.2-16.6v-4.2c0-10.5,5.9-16.7,14.1-16.7c5.6,0,9.5,2.9,10.8,6.3h0.5v-1.6
		c0.1-3,1.9-4.5,4.5-4.5c2.9,0,4.6,1.8,4.6,5.2v31.8C103,78,96,83,85.4,83c-4.8,0-8.7-0.8-11.4-2.4c-2.4-1.4-4.1-3.4-4.1-5.7
		c0-2.1,1.5-3.6,3.8-3.6c1.5,0,2.4,0.7,3.6,1.6c1.6,1.1,3.9,2.6,7.9,2.6c5.5,0,8.4-2.8,8.4-8.2v-5h-0.5
		C91.8,65.8,87.9,68.3,82.6,68.3z M86,61.3c5,0,7.6-4.1,7.6-9.2v-4.4c0-5.2-2.8-9.3-7.8-9.3c-4.8,0-7.9,3.9-7.9,10v3.1
		C78,57.3,81.2,61.3,86,61.3z"/>
	<path class="st0" d="M117.4,17c3.1,0,5.3,2.1,5.3,4.9c0,2.8-2.2,4.9-5.3,4.9c-3,0-5.3-2.1-5.3-4.9C112.1,19,114.3,17,117.4,17z
		 M117.4,69.3c-2.9,0-4.6-1.8-4.6-5.1v-28c0-3.4,1.8-5.2,4.7-5.2c2.9,0,4.6,1.8,4.6,5.2v28C122,67.6,120.3,69.3,117.4,69.3z"/>
	<path class="st0" d="M131.9,64.2V23c0-3.4,1.8-5.2,4.7-5.2c2.9,0,4.7,1.8,4.7,5.2v41.2c0,3.4-1.8,5.1-4.7,5.1
		C133.7,69.3,131.9,67.6,131.9,64.2z"/>
	<path class="st0" d="M149.2,47.8c0-10.3,6.8-17.2,16.9-17.2c9.6,0,16.3,6.8,16.3,16.1c0,4.2-1.2,5.6-4.7,5.6h-19v1.6
		c0,5.2,3.4,8.6,8.9,8.6c2.9,0,5-0.7,6.6-2.1c1.8-1.4,2.4-1.9,3.9-1.9c1.9,0,3.3,1.3,3.3,3.4c0,1.7-1,3.3-2.8,4.5
		c-2.5,2.1-6.8,3.4-11.6,3.4c-11,0-17.8-6.5-17.8-17.1V47.8z M173.5,46.3L173.5,46.3c0-5.2-2.8-8.5-7.3-8.5c-4.6,0-7.5,3.4-7.5,8.5
		v0.1H173.5z"/>
</g>
</svg>
