<?xml version="1.0" encoding="utf-8"?>
<!-- Generator: Adobe Illustrator 25.3.1, SVG Export Plug-In . SVG Version: 6.00 Build 0)  -->
<svg version="1.1" id="Layer_1" xmlns="http://www.w3.org/2000/svg" xmlns:xlink="http://www.w3.org/1999/xlink" x="0px" y="0px"
	 viewBox="0 0 100 100" style="enable-background:new 0 0 100 100;" xml:space="preserve">
<style type="text/css">
	.st0{fill:#1B2729;}
</style>
<g>
	<g>
		<path class="st0" d="M97.7,74l-0.4,1.2c-7.6,14.9-21.1,24-40.4,24.4c-9,0.2-17.6-2.1-23.2-4.6C21.5,89.4,11.3,79.4,5.8,68.6
			c-8-15.4-9.4-36.9,7.2-53c0.3,0-2,3.5-1.8,3.5l-0.5,1.5C-1.2,58,35.6,90,71.4,86.4C80,85.5,90.9,80.8,97.7,74z"/>
		<path class="st0" d="M99.1,27.3c-1.4,3.2-9.5,9.3-13,10C72,40.3,63,33.6,58.2,26c-0.7-1.1-2-4.2-2.2-5c-1.8-6.2-1-15.7,4.5-20.5
			c-1.6,4.6-1.9,10-1,13.5c0.5,2.1,2.1,5.8,3.7,8.1c2.9,4.2,4.8,5.3,8.5,7.5c1.7,1,3.5,1.8,4.3,2C79.5,32.8,87,35.5,99.1,27.3z"/>
		<path class="st0" d="M76,58.5c9,0.1,18.4-4.1,24-10.1c-4.9,12.4-19,20.3-37.9,17.8c-15.8-2.1-30.9-18.1-32.5-34
			c-1.1-11.6,2.9-18.6,9.6-27c-2.3,4.4-3.2,7.8-3.4,10C33.3,40.4,55.9,58.4,76,58.5z"/>
	</g>
</g>
</svg>
