<?xml version="1.0" encoding="utf-8"?>
<!-- Generator: Adobe Illustrator 25.3.1, SVG Export Plug-In . SVG Version: 6.00 Build 0)  -->
<svg version="1.1" id="Layer_1" xmlns="http://www.w3.org/2000/svg" xmlns:xlink="http://www.w3.org/1999/xlink" x="0px" y="0px"
	 viewBox="0 0 100 100" style="enable-background:new 0 0 100 100;" xml:space="preserve">
<style type="text/css">
	.st0{fill:#1B2729;}
</style>
<path class="st0" d="M89.5,76.3c-10.7,5.5-24.7,8.6-39.5,8.6s-28.8-3-39.5-8.6c-3.8-1.9-7-4.2-9.8-6.6C0.3,71.1,0,72.6,0,74.2
	C0,88.4,22.4,100,50,100s50-11.6,50-25.8c0-1.5-0.3-3-0.8-4.5C96.5,72.1,93.3,74.3,89.5,76.3z"/>
<ellipse class="st0" cx="50" cy="25.8" rx="50" ry="25.8"/>
<path class="st0" d="M89.5,52.1c-10.7,5.5-24.7,8.6-39.5,8.6s-28.8-3-39.5-8.6c-3.8-2-7-4.2-9.8-6.6C0.3,47,0,48.5,0,50
	c0,14.3,22.4,25.8,50,25.8s50-11.6,50-25.8c0-1.5-0.3-3-0.8-4.5C96.5,47.9,93.3,50.1,89.5,52.1z"/>
</svg>
