<?xml version="1.0" encoding="utf-8"?>
<!-- Generator: Adobe Illustrator 25.3.1, SVG Export Plug-In . SVG Version: 6.00 Build 0)  -->
<svg version="1.1" id="Layer_1" xmlns="http://www.w3.org/2000/svg" xmlns:xlink="http://www.w3.org/1999/xlink" x="0px" y="0px"
	 viewBox="0 0 240 234" style="enable-background:new 0 0 240 234;" xml:space="preserve">
<style type="text/css">
	.st0{fill:#1B2729;}
</style>
<g>
	<path class="st0" d="M105.3,104.3c-0.9-3-1.9-6.1-2.9-9.2c-1-3.1-1.9-6-2.7-8.9c-0.8-2.9-1.5-5.4-2.2-7.8h-0.2
		c-0.9,4.4-2,8.7-3.4,12.9c-1.5,4.8-3,9.8-4.6,14.8c-1.4,5.1-2.9,9.8-4.4,14h25.4c-0.6-2.1-1.4-4.6-2.3-7.2
		C107.1,110.3,106.2,107.3,105.3,104.3z"/>
	<path class="st0" d="M197.5,0h-155c0,0-0.1,0-0.1,0C19,0,0,19,0,42.5v149c0,0,0,0.1,0,0.1C0,215,19,234,42.5,234h155
		c0,0,0.1,0,0.1,0c23.5,0,42.4-19,42.4-42.5v-149c0,0,0-0.1,0-0.1C240,19,221,0,197.5,0z M147,165.3h-20.9c-0.7,0.1-1.4-0.4-1.6-1.1
		l-8.2-23.8H79.1l-7.6,23.5c-0.2,0.9-1,1.5-1.9,1.4H50.8c-1.1,0-1.4-0.6-1.1-1.8l32.2-92.7c0.3-1,0.6-2.1,1-3.3
		c0.4-2.1,0.6-4.3,0.6-6.5c-0.1-0.5,0.3-1,0.8-1.1h25.9c0.8,0,1.2,0.3,1.3,0.8l36.5,103C148.3,164.8,148,165.3,147,165.3z
		 M181,163.8c0,1.1-0.4,1.6-1.3,1.6h-19.6c-0.8,0.1-1.4-0.5-1.5-1.3c0-0.1,0-0.2,0-0.3v-77c0-1,0.4-1.4,1.3-1.4h19.8
		c0.9,0,1.3,0.5,1.3,1.4V163.8z M178.9,73.5c-2.4,2.4-5.7,3.7-9.1,3.5c-3.3,0.1-6.5-1.2-8.9-3.5c-2.3-2.5-3.5-5.8-3.4-9.2
		c-0.1-3.3,1.2-6.6,3.6-8.9c2.4-2.3,5.6-3.5,8.9-3.5c3.9,0,6.9,1.2,9.1,3.5c2.2,2.4,3.4,5.6,3.3,8.9C182.5,67.7,181.3,71,178.9,73.5
		z"/>
</g>
</svg>
