<?xml version="1.0" encoding="utf-8"?>
<!-- Generator: Adobe Illustrator 25.3.1, SVG Export Plug-In . SVG Version: 6.00 Build 0)  -->
<svg version="1.1" id="Layer_1" xmlns="http://www.w3.org/2000/svg" xmlns:xlink="http://www.w3.org/1999/xlink" x="0px" y="0px"
	 viewBox="0 0 250.6 244.3" style="enable-background:new 0 0 250.6 244.3;" xml:space="preserve">
<style type="text/css">
	.st0{fill:#1B2729;}
</style>
<g>
	<path class="st0" d="M149.9,63.5c-14.8,0-28.2,4.9-39,15h-0.1c0.3,0.1,1,0.4,1.5,0.6c2.1,0.9,5.8,2.7,6.9,3.3
		c1.1,0.6,2.5,1.4,3.9,2.2c2.1,1.3,4,2.5,4.1,2.6c7-4.9,14.1-6.6,22.7-6.6c22.6,0,41,18.4,41,41c0,11-4.3,21.6-12,29.5
		c-7.5,7.9-17.9,12.4-28.9,12.5c-10.2,0-20.9-4.7-29.1-13l-26.1-26.1c-1.6-1.7-3.8-2.6-6.1-2.6c-2.2,0-4.3,0.9-5.9,2.4
		c-3.4,3.3-3.4,8.7-0.1,12.1l26.2,26.3c11.5,11.4,26.5,18,41.2,18c15.5,0,30.3-6.4,41-17.6v0c10.8-11.1,16.9-26.1,16.8-41.6
		C207.9,89.5,182,63.5,149.9,63.5z"/>
	<path class="st0" d="M97.4,163.2v-0.1h-3.9c-16.9,0-31.2-14.2-31.2-31c0-7.3,2.6-14.3,7.4-19.9c11-12.8,30.3-14.2,43.1-3.2
		l19.7,20.2c3.3,3.3,8.6,3.4,11.9,0.2c3.4-3.2,3.6-8.6,0.3-12.1l-19.9-20.4l-0.2-0.2c-8.8-7.9-20.2-12.2-32.1-12.1
		c-26.5,0.1-47.8,21.7-47.7,48.1c0.1,26.5,21.7,47.8,48.1,47.7l25.7,0C118.7,180.5,103,171,97.4,163.2z"/>
	<path class="st0" d="M202.8,5.2h-155c0,0-0.1,0-0.1,0c-23.5,0-42.4,19-42.4,42.5v149c0,0,0,0.1,0,0.1c0,23.5,19,42.4,42.5,42.4h155
		c0,0,0.1,0,0.1,0c23.5,0,42.4-19,42.4-42.5v-149c0,0,0-0.1,0-0.1C245.3,24.1,226.2,5.1,202.8,5.2z M149.1,190.3H94
		c-15.8,0-30.8-6.5-41.6-18c-10.3-10.9-16.1-25.4-16.2-40.4c0-27.8,22.1-57.8,57.8-57.8c2.2,0,4.4,0.1,6.5,0.4
		C112.4,61.8,130.9,54,149.1,54c18.7-0.1,36.5,7.6,49.2,21.3c11.8,12.7,18.4,29.3,18.6,46.6C216.9,159.6,186.5,190.3,149.1,190.3z"
		/>
</g>
</svg>
