<?xml version="1.0" encoding="utf-8"?>
<!-- Generator: Adobe Illustrator 25.3.1, SVG Export Plug-In . SVG Version: 6.00 Build 0)  -->
<svg version="1.1" id="Layer_1" xmlns="http://www.w3.org/2000/svg" xmlns:xlink="http://www.w3.org/1999/xlink" x="0px" y="0px"
	 viewBox="0 0 240 234" style="enable-background:new 0 0 240 234;" xml:space="preserve">
<style type="text/css">
	.st0{fill:#1B2729;}
</style>
<g>
	<path class="st0" d="M148.6,102.3c-3.9,0-7.8,0.8-11.3,2.6c-3.4,1.7-6.3,4.2-8.5,7.4c-2.2,3.2-3.3,7.5-3.3,12.7
		c-0.1,3.5,0.5,7,1.7,10.3c1,2.7,2.5,5.1,4.5,7.1c1.9,1.8,4.3,3.2,6.8,4c2.7,0.9,5.5,1.3,8.3,1.3c1.5,0,2.9-0.1,4.2-0.2
		c1.2,0.1,2.4-0.1,3.6-0.5v-44c-0.9-0.2-1.8-0.4-2.7-0.5C150.8,102.4,149.7,102.3,148.6,102.3z"/>
	<path class="st0" d="M197.5,0h-155c0,0-0.1,0-0.1,0C19,0,0,19,0,42.5v149c0,0,0,0.1,0,0.1C0,215,19,234,42.5,234h155
		c0,0,0.1,0,0.1,0c23.5,0,42.4-19,42.4-42.5v-149c0,0,0-0.1,0-0.1C240,19,221,0,197.5,0z M87.2,163.8c0,1.1-0.5,1.6-1.4,1.6H66.2
		c-0.9,0-1.3-0.5-1.3-1.6V61.2c0-0.9,0.5-1.3,1.4-1.3h19.5c0.6-0.1,1.2,0.3,1.3,0.9c0,0,0,0,0,0.1c0.1,0.1,0.1,0.2,0.1,0.3V163.8z
		 M176.5,160.8c-5.2,2.2-10.7,3.8-16.3,4.8c-5.1,0.9-10.2,1.4-15.4,1.4c-7.4,0.1-14.8-1.4-21.5-4.5c-6.3-2.9-11.5-7.7-15.1-13.6
		c-3.7-6.1-5.5-13.7-5.5-22.8c-0.1-7.4,1.8-14.7,5.5-21.1c3.8-6.5,9.3-11.9,15.9-15.5c7-3.9,15.4-5.8,25.3-5.8c0.7,0,1.4,0,2.1,0.1
		c0.9,0.1,1.9,0.1,3.1,0.2V52.4c0-0.7,0.3-1.1,1-1.1h20.3c0.5-0.1,0.9,0.2,1,0.7v95.4c0,1.8,0.1,3.8,0.2,6c0.1,2.2,0.3,4.1,0.4,5.8
		C177.5,159.9,177.1,160.5,176.5,160.8z"/>
</g>
</svg>
